<svg width="18" height="18" viewBox="0 0 18 18" fill="none" xmlns="http://www.w3.org/2000/svg">
  <path
    d="M14.5575 5.5575L10.935 1.935C10.6575 1.6575 10.275 1.5 9.8775 1.5H4.5C3.675 1.5 3.0075 2.175 3.0075 3L3 15C3 15.825 3.6675 16.5 4.4925 16.5H13.5C14.325 16.5 15 15.825 15 15V6.6225C15 6.225 14.8425 5.8425 14.5575 5.5575ZM10.5 9.75C10.9125 9.75 11.25 10.0875 11.25 10.5V12.75C11.25 13.1625 10.9125 13.5 10.5 13.5H9.75C9.75 13.9125 9.4125 14.25 9 14.25C8.5875 14.25 8.25 13.9125 8.25 13.5H7.5C7.0875 13.5 6.75 13.1625 6.75 12.75C6.75 12.3375 7.0875 12 7.5 12H9.75V11.25H7.5C7.0875 11.25 6.75 10.9125 6.75 10.5V8.25C6.75 7.8375 7.0875 7.5 7.5 7.5H8.25C8.25 7.0875 8.5875 6.75 9 6.75C9.4125 6.75 9.75 7.0875 9.75 7.5H10.5C10.9125 7.5 11.25 7.8375 11.25 8.25C11.25 8.6625 10.9125 9 10.5 9H8.25V9.75H10.5ZM10.5 6C10.0875 6 9.75 5.6625 9.75 5.25V2.625L13.125 6H10.5Z"
    fill="#1B1C1E" />
</svg>