<svg width="25" height="25" viewBox="0 0 25 25" fill="none" xmlns="http://www.w3.org/2000/svg">
  <path
    d="M2.5 5.85874C2.5 4.9673 2.85412 4.11237 3.48447 3.48203C4.11481 2.85168 4.96974 2.49756 5.86118 2.49756H14.652C15.5434 2.49756 16.3983 2.85168 17.0287 3.48203C17.659 4.11237 18.0132 4.9673 18.0132 5.85874V12.5811C18.0132 13.4726 17.659 14.3275 17.0287 14.9578C16.3983 15.5882 15.5434 15.9423 14.652 15.9423H5.86118C4.96974 15.9423 4.11481 15.5882 3.48447 14.9578C2.85412 14.3275 2.5 13.4726 2.5 12.5811V5.85874ZM22.7912 3.11498C22.9106 3.1827 23.0099 3.2809 23.079 3.39955C23.148 3.5182 23.1843 3.65305 23.1842 3.79032V14.6495C23.1842 14.7868 23.1478 14.9216 23.0786 15.0402C23.0095 15.1588 22.9101 15.2569 22.7906 15.3245C22.6712 15.3921 22.5359 15.4268 22.3986 15.4251C22.2614 15.4233 22.127 15.3852 22.0093 15.3145L19.0474 13.5378V4.9021L22.0093 3.12532C22.127 3.05471 22.2612 3.01654 22.3984 3.01472C22.5355 3.01291 22.6707 3.0475 22.7902 3.11498H22.7912ZM8.84488 16.9765C8.67962 17.5015 8.35122 17.96 7.90744 18.2855C7.46365 18.611 6.92761 18.7865 6.37725 18.7864H4.30883C4.10312 18.7864 3.90583 18.8681 3.76036 19.0136C3.6149 19.159 3.53318 19.3563 3.53318 19.562V21.2168C3.53318 21.4636 3.63124 21.7004 3.8058 21.8749C3.98036 22.0495 4.2171 22.1476 4.46397 22.1476H6.47447C7.95572 22.1475 9.39063 21.6312 10.5323 20.6874C11.6739 19.7436 12.4508 18.4313 12.7294 16.9765H8.84591H8.84488Z"
    fill="white" />
</svg>