<svg viewBox="0 0 16 16" fill="none" xmlns="http://www.w3.org/2000/svg">
  <g clip-path="url(#clip0_1050_29546)">
    <path
      d="M8.00033 14.6667C11.6822 14.6667 14.667 11.6819 14.667 8.00004C14.667 4.31814 11.6822 1.33337 8.00033 1.33337C4.31843 1.33337 1.33366 4.31814 1.33366 8.00004C1.33366 9.0665 1.58407 10.0745 2.0293 10.9684C2.14762 11.2059 2.187 11.4774 2.1184 11.7338L1.72133 13.2178C1.54896 13.862 2.13833 14.4514 2.78256 14.279L4.26658 13.882C4.52295 13.8134 4.79446 13.8527 5.03201 13.9711C5.9259 14.4163 6.93387 14.6667 8.00033 14.6667Z"
      stroke="#242625" stroke-width="1.5" />
    <path d="M5.33301 7H10.6663" stroke="#242625" stroke-width="1.5" stroke-linecap="round" />
    <path d="M5.33301 9.33337H8.99967" stroke="#242625" stroke-width="1.5" stroke-linecap="round" />
  </g>
  <defs>
    <clipPath id="clip0_1050_29546">
      <rect width="16" height="16" fill="white" />
    </clipPath>
  </defs>
</svg>