<svg viewBox="0 0 24 24" fill="none" xmlns="http://www.w3.org/2000/svg">
  <path fill-rule="evenodd" clip-rule="evenodd"
    d="M11.5357 3C11.5357 2.44772 11.088 2 10.5357 2H7.14286C5.95939 2 5 2.89543 5 4V20C5 21.1046 5.95939 22 7.14286 22H17.8571C19.0406 22 20 21.1046 20 20V10.9C20 10.3477 19.5523 9.9 19 9.9H14.6429C12.9268 9.9 11.5357 8.60163 11.5357 7V3ZM9.82143 13.1C9.28887 13.1 8.85714 13.5029 8.85714 14C8.85714 14.4971 9.28887 14.9 9.82143 14.9H12.5C13.0326 14.9 13.4643 14.4971 13.4643 14C13.4643 13.5029 13.0326 13.1 12.5 13.1H9.82143ZM9.82143 16.6C9.28887 16.6 8.85714 17.0029 8.85714 17.5C8.85714 17.9971 9.28887 18.4 9.82143 18.4H15.1786C15.7111 18.4 16.1429 17.9971 16.1429 17.5C16.1429 17.0029 15.7111 16.6 15.1786 16.6H9.82143Z"
    fill="#D8D8D8" />
  <path
    d="M17.7672 8.1C18.221 8.1 18.4401 7.54412 18.1084 7.23447L14.3054 3.68508C13.9858 3.38678 13.4643 3.61342 13.4643 4.05061V7C13.4643 7.60751 13.992 8.1 14.6429 8.1H17.7672Z"
    fill="#D8D8D8" />
</svg>