<svg width="12" height="16" viewBox="0 0 12 16" fill="none" xmlns="http://www.w3.org/2000/svg">
  <path fill-rule="evenodd" clip-rule="evenodd"
    d="M5.1 9.57718L3.6364 8.11358C3.28492 7.76211 2.71508 7.76211 2.3636 8.11358C2.01213 8.46505 2.01213 9.0349 2.3636 9.38637L5.3636 12.3864C5.53239 12.5552 5.7613 12.65 6 12.65C6.23869 12.65 6.46761 12.5552 6.6364 12.3864L9.6364 9.38637C9.98787 9.0349 9.98787 8.46505 9.6364 8.11358C9.28492 7.76211 8.71508 7.76211 8.3636 8.11358L6.9 9.57718V4.24998H9C10.6569 4.24998 12 5.59312 12 7.24998V12.5C12 14.1568 10.6569 15.5 9 15.5H3C1.34315 15.5 0 14.1568 0 12.5V7.24998C0 5.59312 1.34315 4.24998 3 4.24998H5.1V9.57718ZM5.1 4.24998V1.24998C5.1 0.752919 5.50294 0.349976 6 0.349976C6.49706 0.349976 6.9 0.752919 6.9 1.24998V4.24998H5.1Z"
    fill="#212129" />
</svg>