<svg viewBox="0 0 24 24" fill="none" xmlns="http://www.w3.org/2000/svg">
  <path
    d="M2 5.2C2 4.0799 2 3.51984 2.21799 3.09202C2.40973 2.71569 2.71569 2.40973 3.09202 2.21799C3.51984 2 4.0799 2 5.2 2H7.8C8.9201 2 9.48016 2 9.90798 2.21799C10.2843 2.40973 10.5903 2.71569 10.782 3.09202C11 3.51984 11 4.0799 11 5.2V7.8C11 8.9201 11 9.48016 10.782 9.90798C10.5903 10.2843 10.2843 10.5903 9.90798 10.782C9.48016 11 8.9201 11 7.8 11H5.2C4.0799 11 3.51984 11 3.09202 10.782C2.71569 10.5903 2.40973 10.2843 2.21799 9.90798C2 9.48016 2 8.9201 2 7.8V5.2Z"
    fill="#D8D8D8" />
  <path
    d="M13 5.2C13 4.0799 13 3.51984 13.218 3.09202C13.4097 2.71569 13.7157 2.40973 14.092 2.21799C14.5198 2 15.0799 2 16.2 2H18.8C19.9201 2 20.4802 2 20.908 2.21799C21.2843 2.40973 21.5903 2.71569 21.782 3.09202C22 3.51984 22 4.0799 22 5.2V7.8C22 8.9201 22 9.48016 21.782 9.90798C21.5903 10.2843 21.2843 10.5903 20.908 10.782C20.4802 11 19.9201 11 18.8 11H16.2C15.0799 11 14.5198 11 14.092 10.782C13.7157 10.5903 13.4097 10.2843 13.218 9.90798C13 9.48016 13 8.9201 13 7.8V5.2Z"
    fill="#D8D8D8" />
  <path
    d="M2 16.2C2 15.0799 2 14.5198 2.21799 14.092C2.40973 13.7157 2.71569 13.4097 3.09202 13.218C3.51984 13 4.0799 13 5.2 13H7.8C8.9201 13 9.48016 13 9.90798 13.218C10.2843 13.4097 10.5903 13.7157 10.782 14.092C11 14.5198 11 15.0799 11 16.2V18.8C11 19.9201 11 20.4802 10.782 20.908C10.5903 21.2843 10.2843 21.5903 9.90798 21.782C9.48016 22 8.9201 22 7.8 22H5.2C4.0799 22 3.51984 22 3.09202 21.782C2.71569 21.5903 2.40973 21.2843 2.21799 20.908C2 20.4802 2 19.9201 2 18.8V16.2Z"
    fill="#D8D8D8" />
  <path
    d="M13 16.2C13 15.0799 13 14.5198 13.218 14.092C13.4097 13.7157 13.7157 13.4097 14.092 13.218C14.5198 13 15.0799 13 16.2 13H18.8C19.9201 13 20.4802 13 20.908 13.218C21.2843 13.4097 21.5903 13.7157 21.782 14.092C22 14.5198 22 15.0799 22 16.2V18.8C22 19.9201 22 20.4802 21.782 20.908C21.5903 21.2843 21.2843 21.5903 20.908 21.782C20.4802 22 19.9201 22 18.8 22H16.2C15.0799 22 14.5198 22 14.092 21.782C13.7157 21.5903 13.4097 21.2843 13.218 20.908C13 20.4802 13 19.9201 13 18.8V16.2Z"
    fill="#D8D8D8" />
</svg>