<svg width="24" height="24" viewBox="0 0 24 24" fill="none" xmlns="http://www.w3.org/2000/svg">
  <path fill-rule="evenodd" clip-rule="evenodd"
    d="M12.0001 1C9.79096 1 8.0001 2.79086 8.0001 5V12C8.0001 14.2091 9.79096 16 12.0001 16C14.2092 16 16.0001 14.2091 16.0001 12V5C16.0001 2.79086 14.2092 1 12.0001 1ZM6.4001 11C6.4001 10.5029 5.99715 10.1 5.5001 10.1C5.00304 10.1 4.6001 10.5029 4.6001 11V12C4.6001 15.7823 7.43766 18.9018 11.1001 19.3458V21.1H8.0001C7.50304 21.1 7.1001 21.5029 7.1001 22C7.1001 22.4971 7.50304 22.9 8.0001 22.9H12.0001H16.0001C16.4972 22.9 16.9001 22.4971 16.9001 22C16.9001 21.5029 16.4972 21.1 16.0001 21.1H12.9001V19.3458C16.5625 18.9018 19.4001 15.7823 19.4001 12V11C19.4001 10.5029 18.9972 10.1 18.5001 10.1C18.003 10.1 17.6001 10.5029 17.6001 11V12C17.6001 15.0928 15.0929 17.6 12.0001 17.6C8.9073 17.6 6.4001 15.0928 6.4001 12V11Z"
    fill="#1B1C1E" />
</svg>