<svg xmlns="http://www.w3.org/2000/svg" viewBox="0 0 40 25" width="40" height="25" preserveAspectRatio="xMidYMid meet" style="width: 100%; height: 100%; transform: translate3d(0px, 0px, 0px); content-visibility: visible;"><defs><clipPath id="__lottie_element_2"><rect width="40" height="25" x="0" y="0"></rect></clipPath><clipPath id="__lottie_element_4"><path d="M0,0 L100,0 L100,60 L0,60z"></path></clipPath></defs><g clip-path="url(#__lottie_element_2)"><g clip-path="url(#__lottie_element_4)" transform="matrix(0.4000000059604645,0,0,0.4166666567325592,0,-0.5)" opacity="1" style="display: block;"><g transform="matrix(1,0,0,1,0,0)" opacity="1" style="display: block;"><g opacity="1" transform="matrix(1,0,0,1,51.59000015258789,31.413000106811523)"><path fill="rgb(123,97,255)" fill-opacity="1" d=" M35.75699996948242,20.08300018310547 C35.75699996948242,20.08300018310547 -35.75699996948242,20.08300018310547 -35.75699996948242,20.08300018310547 C-41.314998626708984,20.08300018310547 -45.821998596191406,15.57699966430664 -45.821998596191406,10.017999649047852 C-45.821998596191406,10.017999649047852 -45.821998596191406,-10.017999649047852 -45.821998596191406,-10.017999649047852 C-45.821998596191406,-15.576000213623047 -41.314998626708984,-20.08300018310547 -35.75699996948242,-20.08300018310547 C-35.75699996948242,-20.08300018310547 35.75699996948242,-20.08300018310547 35.75699996948242,-20.08300018310547 C41.316001892089844,-20.08300018310547 45.821998596191406,-15.576000213623047 45.821998596191406,-10.017999649047852 C45.821998596191406,-10.017999649047852 45.821998596191406,10.017999649047852 45.821998596191406,10.017999649047852 C45.821998596191406,15.57699966430664 41.316001892089844,20.08300018310547 35.75699996948242,20.08300018310547z"></path></g><g opacity="1" transform="matrix(1,0,0,1,28.02400016784668,31.270000457763672)"><path fill="rgb(255,255,255)" fill-opacity="1" d=" M-9.333000183105469,11.24899959564209 C-9.333000183105469,11.24899959564209 -9.333000183105469,-11.24899959564209 -9.333000183105469,-11.24899959564209 C-9.333000183105469,-11.24899959564209 -6.781000137329102,-11.24899959564209 -6.781000137329102,-11.24899959564209 C-6.781000137329102,-11.24899959564209 7.035999774932861,6.875999927520752 7.035999774932861,6.875999927520752 C7.035999774932861,6.875999927520752 6.23799991607666,6.875999927520752 6.23799991607666,6.875999927520752 C6.23799991607666,6.875999927520752 6.23799991607666,-11.24899959564209 6.23799991607666,-11.24899959564209 C6.23799991607666,-11.24899959564209 9.333000183105469,-11.24899959564209 9.333000183105469,-11.24899959564209 C9.333000183105469,-11.24899959564209 9.333000183105469,11.24899959564209 9.333000183105469,11.24899959564209 C9.333000183105469,11.24899959564209 6.814000129699707,11.24899959564209 6.814000129699707,11.24899959564209 C6.814000129699707,11.24899959564209 -6.9730000495910645,-6.875999927520752 -6.9730000495910645,-6.875999927520752 C-6.9730000495910645,-6.875999927520752 -6.23799991607666,-6.875999927520752 -6.23799991607666,-6.875999927520752 C-6.23799991607666,-6.875999927520752 -6.23799991607666,11.24899959564209 -6.23799991607666,11.24899959564209 C-6.23799991607666,11.24899959564209 -9.333000183105469,11.24899959564209 -9.333000183105469,11.24899959564209z"></path></g><g opacity="1" transform="matrix(1,0,0,1,48.73400115966797,34.47700119018555)"><path fill="rgb(255,255,255)" fill-opacity="1" d=" M1.0369999408721924,8.329000473022461 C-1.559000015258789,8.329000473022461 -3.6010000705718994,7.59499979019165 -5.090000152587891,6.126999855041504 C-6.578999996185303,4.658999919891357 -7.322999954223633,2.628000020980835 -7.322999954223633,0.03200000151991844 C-7.322999954223633,-1.6480000019073486 -6.999000072479248,-3.117000102996826 -6.349999904632568,-4.372000217437744 C-5.701000213623047,-5.626999855041504 -4.797999858856201,-6.599999904632568 -3.638000011444092,-7.291999816894531 C-2.4790000915527344,-7.982999801635742 -1.1330000162124634,-8.329000473022461 0.39899998903274536,-8.329000473022461 C1.909000039100647,-8.329000473022461 3.174999952316284,-8.010000228881836 4.196000099182129,-7.372000217437744 C5.2170000076293945,-6.732999801635742 5.99399995803833,-5.834000110626221 6.526000022888184,-4.673999786376953 C7.057000160217285,-3.515000104904175 7.322999954223633,-2.1489999294281006 7.322999954223633,-0.574999988079071 C7.322999954223633,-0.574999988079071 7.322999954223633,0.44699999690055847 7.322999954223633,0.44699999690055847 C7.322999954223633,0.44699999690055847 -4.802999973297119,0.44699999690055847 -4.802999973297119,0.44699999690055847 C-4.802999973297119,0.44699999690055847 -4.802999973297119,-1.4040000438690186 -4.802999973297119,-1.4040000438690186 C-4.802999973297119,-1.4040000438690186 5.122000217437744,-1.4040000438690186 5.122000217437744,-1.4040000438690186 C5.122000217437744,-1.4040000438690186 4.578999996185303,-0.9900000095367432 4.578999996185303,-0.9900000095367432 C4.578999996185303,-2.5850000381469727 4.2230000495910645,-3.822999954223633 3.509999990463257,-4.705999851226807 C2.796999931335449,-5.589000225067139 1.7710000276565552,-6.031000137329102 0.4309999942779541,-6.031000137329102 C-1.059000015258789,-6.031000137329102 -2.2070000171661377,-5.514999866485596 -3.0160000324249268,-4.484000205993652 C-3.8239998817443848,-3.4519999027252197 -4.228000164031982,-2.0309998989105225 -4.228000164031982,-0.22300000488758087 C-4.228000164031982,-0.22300000488758087 -4.228000164031982,0.09600000083446503 -4.228000164031982,0.09600000083446503 C-4.228000164031982,1.9900000095367432 -3.765000104904175,3.4149999618530273 -2.8399999141693115,4.372000217437744 C-1.9149999618530273,5.329999923706055 -0.6010000109672546,5.808000087738037 1.1009999513626099,5.808000087738037 C2.0369999408721924,5.808000087738037 2.9140000343322754,5.675000190734863 3.7330000400543213,5.408999919891357 C4.552000045776367,5.14300012588501 5.334000110626221,4.702000141143799 6.078999996185303,4.085000038146973 C6.078999996185303,4.085000038146973 7.131999969482422,6.285999774932861 7.131999969482422,6.285999774932861 C6.38700008392334,6.945000171661377 5.482999801635742,7.452000141143799 4.420000076293945,7.802999973297119 C3.3559999465942383,8.154000282287598 2.2279999256134033,8.329000473022461 1.0369999408721924,8.329000473022461z"></path></g><g opacity="1" transform="matrix(1,0,0,1,71.1500015258789,34.47700119018555)"><path fill="rgb(255,255,255)" fill-opacity="1" d=" M-7.243000030517578,8.041999816894531 C-7.243000030517578,8.041999816894531 -13.33899974822998,-8.041999816894531 -13.33899974822998,-8.041999816894531 C-13.33899974822998,-8.041999816894531 -9.98799991607666,-8.041999816894531 -9.98799991607666,-8.041999816894531 C-9.98799991607666,-8.041999816894531 -5.234000205993652,5.361999988555908 -5.234000205993652,5.361999988555908 C-5.234000205993652,5.361999988555908 -6.061999797821045,5.361999988555908 -6.061999797821045,5.361999988555908 C-6.061999797821045,5.361999988555908 -1.1799999475479126,-8.041999816894531 -1.1799999475479126,-8.041999816894531 C-1.1799999475479126,-8.041999816894531 1.309000015258789,-8.041999816894531 1.309000015258789,-8.041999816894531 C1.309000015258789,-8.041999816894531 6.158999919891357,5.361999988555908 6.158999919891357,5.361999988555908 C6.158999919891357,5.361999988555908 5.361999988555908,5.361999988555908 5.361999988555908,5.361999988555908 C5.361999988555908,5.361999988555908 10.116000175476074,-8.041999816894531 10.116000175476074,-8.041999816894531 C10.116000175476074,-8.041999816894531 13.33899974822998,-8.041999816894531 13.33899974822998,-8.041999816894531 C13.33899974822998,-8.041999816894531 7.211999893188477,8.041999816894531 7.211999893188477,8.041999816894531 C7.211999893188477,8.041999816894531 4.2769999504089355,8.041999816894531 4.2769999504089355,8.041999816894531 C4.2769999504089355,8.041999816894531 -0.765999972820282,-5.617000102996826 -0.765999972820282,-5.617000102996826 C-0.765999972820282,-5.617000102996826 0.734000027179718,-5.617000102996826 0.734000027179718,-5.617000102996826 C0.734000027179718,-5.617000102996826 -4.243000030517578,8.041999816894531 -4.243000030517578,8.041999816894531 C-4.243000030517578,8.041999816894531 -7.243000030517578,8.041999816894531 -7.243000030517578,8.041999816894531z"></path></g></g><g transform="matrix(0,0.00014125026063993573,-0.00014125026063993573,0,9.852325439453125,10.759801864624023)" opacity="0.00014125025860352026" style="display: none;"><g opacity="1" transform="matrix(1,0,0,1,8.362000465393066,9.255999565124512)"><path fill="rgb(248,187,3)" fill-opacity="1" d=" M8.362000465393066,0 C2.3580000400543213,1.4420000314712524 1.3020000457763672,2.6110000610351562 0,9.255999565124512 C-1.3029999732971191,2.6110000610351562 -2.3589999675750732,1.4420000314712524 -8.362000465393066,0 C-2.3589999675750732,-1.4420000314712524 -1.3029999732971191,-2.6110000610351562 0,-9.255999565124512 C1.3020000457763672,-2.6110000610351562 2.3580000400543213,-1.4420000314712524 8.362000465393066,0z"></path></g></g><g style="display: none;" transform="matrix(0,0.00015564323985017836,-0.00015564323985017836,0,90.98375701904297,49.87184143066406)" opacity="0.00015564323183596686"><g opacity="1" transform="matrix(1,0,0,1,91.00299835205078,49.89400100708008)"><path fill="rgb(246,134,0)" fill-opacity="1" d=" M8.699000358581543,0 C2.4539999961853027,1.5 1.3550000190734863,2.7160000801086426 0,9.628999710083008 C-1.3550000190734863,2.7160000801086426 -2.453000068664551,1.5 -8.697999954223633,0 C-2.453000068664551,-1.5 -1.3550000190734863,-2.7160000801086426 0,-9.628999710083008 C1.3550000190734863,-2.7160000801086426 2.4539999961853027,-1.5 8.699000358581543,0z"></path></g></g><g transform="matrix(0.7606282234191895,0.2473570555448532,-0.2473570555448532,0.7606282234191895,15.375589370727539,8.369281768798828)" opacity="0.799838038868267" style="display: block;"><g opacity="1" transform="matrix(1,0,0,1,10.41100025177002,50.99399948120117)"><path fill="rgb(248,187,3)" fill-opacity="1" d=" M-7.695000171661377,0 C-2.1700000762939453,-1.3270000219345093 -1.1979999542236328,-2.4030001163482666 0,-8.517999649047852 C1.1990000009536743,-2.4030001163482666 2.1710000038146973,-1.3270000219345093 7.695000171661377,0 C2.1710000038146973,1.3270000219345093 1.1990000009536743,2.4030001163482666 0,8.517999649047852 C-1.1979999542236328,2.4030001163482666 -2.1700000762939453,1.3270000219345093 -7.695000171661377,0z"></path></g></g><g transform="matrix(0.43207237124443054,0.3569393754005432,-0.3569393754005432,0.43207237124443054,54.56749725341797,-24.09754753112793)" opacity="0.5604393624049918" style="display: block;"><g opacity="1" transform="matrix(1,0,0,1,89.38800048828125,9.255999565124512)"><path fill="rgb(246,134,0)" fill-opacity="1" d=" M-8.333999633789062,0 C-2.3510000705718994,-1.437000036239624 -1.2979999780654907,-2.6019999980926514 0,-9.225000381469727 C1.2979999780654907,-2.6019999980926514 2.3510000705718994,-1.437000036239624 8.333999633789062,0 C2.3510000705718994,1.437000036239624 1.2979999780654907,2.6019999980926514 0,9.225000381469727 C-1.2979999780654907,2.6019999980926514 -2.3510000705718994,1.437000036239624 -8.333999633789062,0z"></path></g></g></g></g></svg>