<svg width="43" height="43" viewBox="0 0 43 43" fill="none" xmlns="http://www.w3.org/2000/svg">
  <path fill-rule="evenodd" clip-rule="evenodd"
    d="M21.5 43C33.3741 43 43 33.3741 43 21.5C43 9.62588 33.3741 0 21.5 0C9.62588 0 0 9.62588 0 21.5C0 33.3741 9.62588 43 21.5 43ZM13.7815 23.8399V19.7114C13.7815 15.1022 13.7815 12.7975 15.2929 11.8956C16.8044 10.9936 18.8488 12.0781 22.9378 14.2471L26.8292 16.3114C31.3615 18.7157 33.6277 19.9178 33.6277 21.7756C33.6277 23.6335 31.3615 24.8356 26.8292 27.2399L22.9378 29.3042C18.8488 31.4732 16.8044 32.5577 15.2929 31.6557C13.7815 30.7537 13.7815 28.4491 13.7815 23.8399Z"
    fill="#FFFEFD" />
</svg>