<svg width="25" height="28" viewBox="0 0 25 28" fill="none" xmlns="http://www.w3.org/2000/svg">
<mask id="mask0_2522_127869" style="mask-type:alpha" maskUnits="userSpaceOnUse" x="0" y="0" width="25" height="28">
<path d="M9.60318 1.65617C10.78 0.968142 11.2737 0.686366 11.7868 0.575916C12.257 0.474695 12.743 0.474695 13.2132 0.575916C13.7263 0.686366 14.22 0.968142 15.3968 1.65617L21.5985 5.28207C22.7747 5.9698 23.2633 6.26219 23.6152 6.65801C23.9379 7.02089 24.1819 7.44879 24.3312 7.91408C24.4943 8.42235 24.5 8.99921 24.5 10.3741V17.6259C24.5 19.0008 24.4943 19.5776 24.3312 20.0859C24.1819 20.5512 23.9379 20.9791 23.6152 21.342C23.2633 21.7378 22.7747 22.0302 21.5985 22.7179L15.3968 26.3438C14.22 27.0319 13.7263 27.3136 13.2132 27.4241C12.743 27.5253 12.257 27.5253 11.7868 27.4241C11.2737 27.3136 10.78 27.0319 9.60318 26.3438L3.40155 22.7179C2.22527 22.0302 1.7367 21.7378 1.38476 21.342C1.06212 20.9791 0.818052 20.5512 0.668759 20.0859C0.505679 19.5776 0.5 19.0008 0.5 17.6259L0.5 10.3741C0.5 8.99921 0.505679 8.42235 0.668759 7.91408C0.818052 7.44879 1.06212 7.02089 1.38476 6.65802C1.7367 6.26219 2.22527 5.9698 3.40155 5.28207L9.60318 1.65617Z" fill="#D8D8D8" stroke="url(#paint0_linear_2522_127869)"/>
</mask>
<g mask="url(#mask0_2522_127869)">
<ellipse cx="13.5" cy="9.0612" rx="5.4375" ry="6.04167" fill="#FFFEFD"/>
<path d="M24.375 24.1654C24.375 27.8358 18.8388 26.582 13.5 26.582C8.16125 26.582 2.625 27.8358 2.625 24.1654C2.625 20.495 8.16125 17.5195 13.5 17.5195C18.8388 17.5195 24.375 20.495 24.375 24.1654Z" fill="#FFFEFD"/>
</g>
<defs>
<linearGradient id="paint0_linear_2522_127869" x1="18.9153" y1="11.9512" x2="-0.49117" y2="12.5689" gradientUnits="userSpaceOnUse">
<stop stop-color="#C971FF"/>
<stop offset="1" stop-color="#5C79FC"/>
</linearGradient>
</defs>
</svg>
