<?xml version="1.0" encoding="utf-8"?>
<svg version="1.1" id="Layer_1" xmlns="http://www.w3.org/2000/svg" xmlns:xlink="http://www.w3.org/1999/xlink" x="0px" y="0px"
	 viewBox="0 0 16 16" style="enable-background:new 0 0 16 16;" xml:space="preserve">
<style type="text/css">
	.st0{fill-rule:evenodd;clip-rule:evenodd;fill:#1B1C1E;}
</style>
<path class="st0" d="M7.2,0.3c-1.3,0-2.3,1-2.4,2.3H2.7H2C1.5,2.6,1.1,3,1.1,3.5C1.1,4,1.5,4.4,2,4.4h0.8h0.1l0.6,9l0,0
	c0.1,1.2,1.1,2.1,2.2,2.1h4.7c1.2,0,2.2-0.9,2.2-2.1l0,0l0.6-9h0.1H14c0.5,0,0.9-0.4,0.9-0.9c0-0.5-0.4-0.9-0.9-0.9h-0.8h-2.1
	C11.1,1.3,10,0.3,8.7,0.3H7.2z M9.3,2.6H6.7C6.7,2.3,7,2.1,7.2,2.1h1.5C9,2.1,9.3,2.3,9.3,2.6z M7.2,6.5c0-0.5-0.4-0.9-0.9-0.9
	S5.4,6,5.4,6.5l0.2,5.2c0,0.5,0.4,0.9,0.9,0.9c0.5,0,0.9-0.4,0.9-0.9L7.2,6.5z M10.6,6.5c0-0.5-0.4-0.9-0.9-0.9S8.8,6,8.8,6.5
	l-0.2,5.2c0,0.5,0.4,0.9,0.9,0.9c0.5,0,0.9-0.4,0.9-0.9L10.6,6.5z"/>
</svg>
