<svg viewBox="0 0 25 24" fill="none" xmlns="http://www.w3.org/2000/svg">
<path d="M21.5 13C21.5 17.9706 17.4706 22 12.5 22C7.52944 22 3.5 17.9706 3.5 13C3.5 8.02944 7.52944 4 12.5 4C17.4706 4 21.5 8.02944 21.5 13Z" stroke="#9a9a9a" stroke-width="1.5"/>
<path d="M11.75 13C11.75 13.4142 12.0858 13.75 12.5 13.75C12.9142 13.75 13.25 13.4142 13.25 13H11.75ZM13.25 9C13.25 8.58579 12.9142 8.25 12.5 8.25C12.0858 8.25 11.75 8.58579 11.75 9H13.25ZM13.25 13V9H11.75V13H13.25Z" fill="#9a9a9a"/>
<path d="M10.5 1H14.5" stroke="#9a9a9a" stroke-width="1.5" stroke-linecap="round"/>
</svg>
