<svg viewBox="0 0 24 24" fill="none" xmlns="http://www.w3.org/2000/svg">
  <path fill-rule="evenodd" clip-rule="evenodd"
    d="M7.8855 14.8417C7.32711 14.0348 7 13.0556 7 12C7 10.9444 7.3271 9.96525 7.88548 9.1583L4.32104 5.59387C2.872 7.32894 2 9.56264 2 12C2 14.4374 2.87201 16.6711 4.32107 18.4062L7.8855 14.8417ZM9.1583 16.1145L5.59387 19.679C7.32894 21.128 9.56264 22 12 22C14.4374 22 16.6711 21.128 18.4061 19.679L14.8417 16.1145C14.0348 16.6729 13.0556 17 12 17C10.9444 17 9.96524 16.6729 9.1583 16.1145ZM16.1145 14.8417L19.6789 18.4062C21.128 16.6711 22 14.4374 22 12C22 9.56264 21.128 7.32894 19.679 5.59386L16.1145 9.1583C16.6729 9.96524 17 10.9444 17 12C17 13.0556 16.6729 14.0348 16.1145 14.8417ZM14.8417 7.8855L18.4062 4.32107C16.6711 2.87201 14.4374 2 12 2C9.56262 2 7.32892 2.87201 5.59383 4.32107L9.15826 7.8855C9.96522 7.32711 10.9444 7 12 7C13.0556 7 14.0348 7.32711 14.8417 7.8855Z"
    fill="#D8D8D8" />
</svg>