<svg viewBox="0 0 16 16" fill="none" xmlns="http://www.w3.org/2000/svg">
  <g clip-path="url(#clip0_1050_29549)">
    <path
      d="M11.333 6.00134C12.783 6.00941 13.5683 6.07372 14.0806 6.58597C14.6663 7.17176 14.6663 8.11457 14.6663 10.0002V10.6669C14.6663 12.5525 14.6663 13.4953 14.0806 14.0811C13.4948 14.6669 12.552 14.6669 10.6663 14.6669H5.33301C3.44739 14.6669 2.50458 14.6669 1.91879 14.0811C1.33301 13.4953 1.33301 12.5525 1.33301 10.6669L1.33301 10.0002C1.33301 8.11457 1.33301 7.17176 1.91879 6.58597C2.43105 6.07371 3.21632 6.00941 4.66634 6.00134"
      stroke="#242625" stroke-width="1.5" stroke-linecap="round" />
    <path
      d="M8.75 10C8.75 10.4142 8.41421 10.75 8 10.75C7.58579 10.75 7.25 10.4142 7.25 10L8.75 10ZM8 1.33333L7.43056 0.84524C7.57304 0.679005 7.78106 0.583333 8 0.583333C8.21894 0.583333 8.42696 0.679005 8.56944 0.84524L8 1.33333ZM10.5694 3.17857C10.839 3.49307 10.8026 3.96654 10.4881 4.23611C10.1736 4.50568 9.70012 4.46925 9.43056 4.15476L10.5694 3.17857ZM6.56944 4.15476C6.29988 4.46925 5.8264 4.50568 5.51191 4.23611C5.19741 3.96654 5.16099 3.49307 5.43056 3.17857L6.56944 4.15476ZM7.25 10L7.25 1.33333L8.75 1.33333L8.75 10L7.25 10ZM8.56944 0.84524L10.5694 3.17857L9.43056 4.15476L7.43056 1.82143L8.56944 0.84524ZM8.56944 1.82143L6.56944 4.15476L5.43056 3.17857L7.43056 0.84524L8.56944 1.82143Z"
      fill="#242625" />
  </g>
  <defs>
    <clipPath id="clip0_1050_29549">
      <rect width="16" height="16" rx="5" fill="white" />
    </clipPath>
  </defs>
</svg>